<svg xmlns="http://www.w3.org/2000/svg" viewBox="0 0 64 64" fill="none" stroke="#69462e" stroke-width="2.6" stroke-linecap="round" stroke-linejoin="round"><path d="M12 25h40v31H12Z" fill="#e9c28b"/><path d="M9 14h46l5 17H4Z" fill="#f6ead0"/><path d="M9 14h9l-2 17H4Zm18 0h10l1 17H26Zm19 0h9l5 17H48Z" fill="#cb6750" stroke="none"/><path d="M4 30v4a6 6 0 0 0 12 0 5 5 0 0 0 10 0 6 6 0 0 0 12 0 5 5 0 0 0 10 0 6 6 0 0 0 12 0v-4" fill="#f7d8ac"/><path d="M17 39h11v17H17Z" fill="#8f6443"/><path d="M35 39h11v10H35Z" fill="#9bc8c1"/><path d="M9 11h46v5H9Z" fill="#a66542"/><path d="M10 57h44" stroke="#765037" stroke-width="4"/><circle cx="24" cy="47" r="1" fill="#f7dd95" stroke="none"/></svg>